# xmcd
#
# Track frame offsets:
#	150
#	16650
#	30225
#	45675
#	58650
#	76650
#	92475
#	107625
#	119775
#	135750
#	155700
#	172575
#	187800
#	202950
#
# Disc length: 2726 seconds
#
# Revision: 1
# Processed by: cddbd v1.5.2PL0 Copyright (c) Steve Scherf et al.
# Submitted via: audiograbber 1.83.01
#
DISCID=990aa40e
DTITLE=Wilson, Gretchen - AKS10004
DYEAR=1900
DGENRE=Karaoke
TTITLE0=Wilson, Gretchen - All Jacked Up
TTITLE1=Wilson, Gretchen - California Girls
TTITLE2=Wilson, Gretchen - Full Time Job
TTITLE3=Wilson, Gretchen - Skoal Ring
TTITLE4=Wilson, Gretchen - He Ain't Even Cold Yet
TTITLE5=Wilson, Gretchen - One Bud Wiser
TTITLE6=Wilson, Gretchen - Politically Incorrect (M/F Duet)
TTITLE7=Wilson, Gretchen - I Don't Feel Like Loving You Today
TTITLE8=Wilson, Gretchen - Rebel Child
TTITLE9=Wilson, Gretchen - Raining On ME
TTITLE10=Wilson, Gretchen - Not Bad For A Bartender
TTITLE11=Wilson, Gretchen - Good Morning Heartache
TTITLE12=Wilson, Gretchen - Politically Incorrect (Female Solo)
TTITLE13=Data - Data Track
EXTD=
EXTT0=
EXTT1=
EXTT2=
EXTT3=
EXTT4=
EXTT5=
EXTT6=
EXTT7=
EXTT8=
EXTT9=
EXTT10=
EXTT11=
EXTT12=
EXTT13=
PLAYORDER=
